<?xml version="1.0" encoding="utf-8"?>
<!-- Generator: Adobe Illustrator 26.0.3, SVG Export Plug-In . SVG Version: 6.00 Build 0)  -->
<svg version="1.1" id="Layer_1" xmlns="http://www.w3.org/2000/svg" xmlns:xlink="http://www.w3.org/1999/xlink" x="0px" y="0px"
	 viewBox="0 0 600 600" style="enable-background:new 0 0 600 600;" xml:space="preserve">
<style type="text/css">
	.st0{fill:#EAEAF1;}
	.st1{fill:#1F52FF;}
</style>
<path class="st0" d="M394.3,417.6H200c-29.8,0-54-24.2-54-54V169.3c0-29.8,24.2-54,54-54h194.2c29.8,0,54,24.2,54,54v194.2
	C448.3,393.4,424.1,417.6,394.3,417.6z"/>
<path class="st1" d="M361.7,271.6c-19.1-6.8-40.1,3.2-46.9,22.4c-2.8,7.9-2.8,16.6,0,24.5h-69.5c-3.4,0-6.1-2.7-6.1-6.1v-98
	c0-3.4,2.7-6.1,6.1-6.1h110.3c3.4,0,6.1,2.7,6.1,6.1V271.6z M300.8,261.5l-39.3-33.4l-7.9,9.3l47.3,40.2l46.4-40.2l-8-9.3
	L300.8,261.5L300.8,261.5z M343.3,324.7L321.7,303l8.7-8.7l13,13l21.7-21.7l8.7,8.7L343.3,324.7z"/>
</svg>
