<?xml version="1.0" encoding="utf-8"?>
<!-- Generator: Adobe Illustrator 26.0.3, SVG Export Plug-In . SVG Version: 6.00 Build 0)  -->
<svg version="1.1" id="Layer_1" xmlns="http://www.w3.org/2000/svg" xmlns:xlink="http://www.w3.org/1999/xlink" x="0px" y="0px"
	 viewBox="0 0 600 600" style="enable-background:new 0 0 600 600;" xml:space="preserve">
<style type="text/css">
	.st0{fill:#EAEAF1;}
	.st1{fill:none;}
	.st2{fill:#FFD107;}
	.st3{fill:#F46311;}
</style>
<path class="st0" d="M394.3,417.6H200c-29.8,0-54-24.2-54-54V169.3c0-29.8,24.2-54,54-54h194.2c29.8,0,54,24.2,54,54v194.2
	C448.3,393.4,424.1,417.6,394.3,417.6z"/>
<path class="st1" d="M225.7,184.8h149.5v149.5H225.7V184.8z"/>
<rect x="247" y="231" width="86.4" height="77.4"/>
<path class="st1" d="M327,277.5h140.1v140.1H327V277.5z"/>
<path class="st1" d="M237.7,201.2h130.5v130.5H237.7V201.2z"/>
<path class="st2" d="M288.9,327.6c-33.8,0-61.1-27.4-61.1-61.1s27.4-61.1,61.1-61.1s61.1,27.4,61.1,61.1S322.7,327.6,288.9,327.6z
	 M258.4,272.6c0,16.9,13.7,30.6,30.6,30.6c16.9,0,30.6-13.7,30.6-30.6h-12.2c0,10.1-8.2,18.3-18.3,18.3c-10.1,0-18.3-8.2-18.3-18.3
	H258.4z M264.5,260.3c5.1,0,9.2-4.1,9.2-9.2s-4.1-9.2-9.2-9.2s-9.2,4.1-9.2,9.2S259.4,260.3,264.5,260.3z M313.4,260.3
	c5.1,0,9.2-4.1,9.2-9.2s-4.1-9.2-9.2-9.2c-5.1,0-9.2,4.1-9.2,9.2S308.3,260.3,313.4,260.3z"/>
<path class="st1" d="M345.6,275.7l66.1,7l-7,66.1l-66.1-7L345.6,275.7z"/>
<path class="st3" d="M333.6,287.4l10.3,1.1l-4.4,41l-10.3-1.1c-1.9-0.2-3.3-1.9-3.1-3.8l3.6-34.2
	C330.1,288.5,331.7,287.2,333.6,287.4z M352.2,284.9l24.2-19.6c0.7-0.5,1.6-0.5,2.3,0.1l2.7,2.5c1.5,1.4,2,3.6,1.3,5.6l-5.6,15.1
	l21.9,2.3c3.8,0.4,6.5,3.8,6.1,7.6l-0.8,7.2c-0.1,0.9-0.4,1.8-0.8,2.6l-13.3,24.6c-0.7,1.2-2,1.9-3.4,1.8l-37-3.9
	c-1.9-0.2-3.3-1.9-3.1-3.8l4.2-39.6C351,286.3,351.5,285.4,352.2,284.9z"/>
</svg>
