<svg width="53" height="59" viewBox="0 0 53 59" fill="none" xmlns="http://www.w3.org/2000/svg">
<g clip-path="url(#clip0_242_254)">
<path d="M25.74 58.0993L26.4839 58.927L27.2277 58.0993L40.9993 42.7737L40.2555 42.1053L40.9993 42.7737C43.8536 39.5973 45.7873 35.5625 46.5699 31.1841C47.3525 26.8059 46.9515 22.2667 45.4144 18.137C43.8771 14.007 41.2677 10.4602 37.9007 7.95666C34.5321 5.45186 30.5589 4.10651 26.4839 4.10651C22.4088 4.10651 18.4356 5.45186 15.067 7.95666C11.7 10.4602 9.09063 14.007 7.55335 18.137C6.0162 22.2667 5.61524 26.8059 6.39781 31.1841C7.18039 35.5625 9.11412 39.5973 11.9685 42.7737L12.7123 42.1053L11.9685 42.7737L25.74 58.0993ZM28.8004 29.5171C28.166 30.223 27.3299 30.5961 26.4839 30.5961C25.6378 30.5961 24.8017 30.223 24.1673 29.5171C23.5298 28.8075 23.1559 27.8244 23.1559 26.7798C23.1559 25.7352 23.5298 24.752 24.1673 24.0425C24.8017 23.3365 25.6378 22.9635 26.4839 22.9635C27.3299 22.9635 28.166 23.3365 28.8004 24.0425C29.438 24.752 29.8118 25.7352 29.8118 26.7798C29.8118 27.8244 29.438 28.8075 28.8004 29.5171Z" fill="#FF8DA5" stroke="white" stroke-width="2"/>
</g>
<defs>
<clipPath id="clip0_242_254">
<rect width="51.9356" height="57.7959" fill="white" transform="translate(0.516052 0.289978)"/>
</clipPath>
</defs>
</svg>
