<svg width="33" height="44" viewBox="0 0 33 44" fill="none" xmlns="http://www.w3.org/2000/svg">
<path d="M15 29.52V41.28H16.56V29.52H15ZM6.24 39.048L7.044 40.188C8.616 39.156 9.768 37.992 10.44 36.468C11.316 37.668 12.048 38.88 12.624 40.188L13.944 39.348C13.392 37.956 12.072 36.216 10.908 34.98C11.028 34.392 11.088 33.744 11.088 33.048V31.392H13.608V30.12H6.936V31.392H9.456V33.216C9.456 36.072 8.508 37.488 6.24 39.048ZM28.56 34.56H21V31.272H28.56V30H19.44V35.832H28.56V34.56ZM18.6 40.284H29.4V39.012H24.78V36.36H23.22V39.012H18.6V40.284Z" fill="#1F52FF"/>
<path d="M2.75 5.83337L12.375 2.33337L20.625 5.83337L29.2916 2.68221C29.3962 2.64415 29.5104 2.62874 29.6237 2.63734C29.7371 2.64594 29.8462 2.67829 29.9412 2.73149C30.0362 2.78469 30.1141 2.85707 30.168 2.94214C30.2219 3.0272 30.2501 3.12229 30.25 3.21887V22.1667L20.625 25.6667L12.375 22.1667L3.70838 25.3179C3.60376 25.3559 3.48964 25.3713 3.37627 25.3627C3.26289 25.3541 3.15381 25.3218 3.05881 25.2686C2.96381 25.2154 2.88586 25.143 2.83196 25.0579C2.77806 24.9729 2.7499 24.8778 2.75 24.7812V5.83337ZM20.625 23.058V8.37204L20.5356 8.40471L12.375 4.94204V19.628L12.4644 19.5954L20.625 23.058Z" fill="#1F52FF"/>
</svg>
