<svg xmlns="http://www.w3.org/2000/svg" viewBox="0 0 150 40"><defs><style>.cls-1{fill:#fff;}.cls-2{fill:#e6e6ea;}.cls-3{fill:#03c75a;}.cls-4{fill:#767678;}</style></defs><g id="Layer_2" data-name="Layer 2"><g id="Layer_2-2" data-name="Layer 2"><rect class="cls-1" x="0.5" y="0.5" width="149" height="39" rx="2.5"/><path class="cls-2" d="M147,1a2,2,0,0,1,2,2V37a2,2,0,0,1-2,2H3a2,2,0,0,1-2-2V3A2,2,0,0,1,3,1H147m0-1H3A3.009,3.009,0,0,0,0,3V37a3.009,3.009,0,0,0,3,3H147a3.009,3.009,0,0,0,3-3V3a3.009,3.009,0,0,0-3-3Z"/><polygon class="cls-3" points="34.206 20.423 29.719 14 26 14 26 26 29.896 26 29.896 19.577 34.383 26 38.102 26 38.102 14 34.206 14 34.206 20.423"/><path class="cls-4" d="M48.868,22.268V14.036H50.1v7.153h.462a12.691,12.691,0,0,0,2.107-.161q.959-.16,1.575-.3v1.029q-.336.1-.784.191c-.3.062-.618.116-.959.163s-.689.086-1.043.114-.7.043-1.036.043Zm6.23-9.044h1.19V25.543H55.1V18.208H52.326V17.157H55.1Zm4.046,12.641h-1.2V13.083h1.2Z"/><path class="cls-4" d="M67.32,18.382a7.056,7.056,0,0,1-.253,1.985,4.353,4.353,0,0,1-.694,1.437,2.949,2.949,0,0,1-1.045.869,2.9,2.9,0,0,1-1.291.294,2.854,2.854,0,0,1-1.284-.294,3.02,3.02,0,0,1-1.045-.869A4.347,4.347,0,0,1,61,20.367a6.9,6.9,0,0,1-.26-1.985A6.83,6.83,0,0,1,61,16.405a4.338,4.338,0,0,1,.708-1.43,3.02,3.02,0,0,1,1.045-.869,2.867,2.867,0,0,1,1.284-.294,2.909,2.909,0,0,1,1.291.294,2.949,2.949,0,0,1,1.045.869,4.343,4.343,0,0,1,.694,1.43A6.983,6.983,0,0,1,67.32,18.382Zm-1.232,0a6.736,6.736,0,0,0-.14-1.425,3.982,3.982,0,0,0-.4-1.1,2,2,0,0,0-.644-.713,1.651,1.651,0,0,0-1.75,0,2,2,0,0,0-.644.713,3.95,3.95,0,0,0-.4,1.1,7.327,7.327,0,0,0,0,2.851,3.969,3.969,0,0,0,.4,1.1,2.07,2.07,0,0,0,.644.719,1.608,1.608,0,0,0,1.75,0,2.07,2.07,0,0,0,.644-.719,4,4,0,0,0,.4-1.1A6.739,6.739,0,0,0,66.088,18.382Zm3.64-5.3h1.2V25.865h-1.2Z"/><path class="cls-4" d="M78.73,17.578h3V13.083h1.2V25.865h-1.2V18.627h-3v3.752H73.018l.014-8.33h1.232v3.164H77.54V14.049h1.19Zm-1.176.657h-3.3v3.122h3.3Z"/><path class="cls-4" d="M89.532,20.755V16.892h6.79V15.043h-6.8V13.994h8.008v3.891h-6.79v1.848h7.21v1.022H94.152v2.283h5.32V24.06h-11.9V23.038h5.32V20.755Z"/><path class="cls-4" d="M108.362,15.31H101.39V14.231h8.2q-.028,1.038-.1,2.167t-.194,2.265q-.117,1.136-.27,2.215t-.3,2h2.734v1.022H99.57V22.883h7.924q.35-1.722.588-3.689T108.362,15.31Z"/><path class="cls-4" d="M112.016,16.892a3.362,3.362,0,0,1,.251-1.3,3.1,3.1,0,0,1,.7-1.036,3.241,3.241,0,0,1,1.048-.678,3.43,3.43,0,0,1,1.313-.246,3.539,3.539,0,0,1,1.327.246,3.209,3.209,0,0,1,1.062.678,3.1,3.1,0,0,1,.7,1.036,3.362,3.362,0,0,1,.251,1.3,3.221,3.221,0,0,1-.251,1.274,3.035,3.035,0,0,1-.7,1.014,3.279,3.279,0,0,1-1.062.673,3.558,3.558,0,0,1-1.327.245,3.448,3.448,0,0,1-1.313-.245,3.313,3.313,0,0,1-1.048-.673,3.035,3.035,0,0,1-.7-1.014A3.221,3.221,0,0,1,112.016,16.892Zm1.288-.008a2.46,2.46,0,0,0,.147.859,1.888,1.888,0,0,0,.42.676,1.986,1.986,0,0,0,.651.44,2.272,2.272,0,0,0,1.68,0,1.933,1.933,0,0,0,1.078-1.116,2.374,2.374,0,0,0,.154-.859,2.51,2.51,0,0,0-.154-.893,2.135,2.135,0,0,0-.427-.7,1.889,1.889,0,0,0-.651-.453,2.272,2.272,0,0,0-1.68,0,1.889,1.889,0,0,0-.651.453,2.038,2.038,0,0,0-.42.7A2.6,2.6,0,0,0,113.3,16.884Zm9.184,8.729h-8.274V21.651h1.232v2.912h7.042Zm-.294-3.29H121v-9.24h1.19Z"/></g></g></svg>