<svg id="Layer_1" data-name="Layer 1" xmlns="http://www.w3.org/2000/svg" viewBox="0 0 302.2 302.3"><defs><style>.cls-1{fill:#eaeaf1;}.cls-2{fill:none;}.cls-3{fill:#ffd107;}.cls-4{fill:#fff;}.cls-5{fill:#1f52ff;}.cls-6{fill:#5026ea;}</style></defs><path class="cls-1" d="M394.3,417.6H200a54.03,54.03,0,0,1-54-54V169.3a54.03,54.03,0,0,1,54-54H394.2a54.03,54.03,0,0,1,54,54V363.5A53.9,53.9,0,0,1,394.3,417.6Z" transform="translate(-146 -115.3)"/><path class="cls-2" d="M225.7,184.833H375.2v149.5H225.7Z" transform="translate(-146 -115.3)"/><rect class="cls-3" x="224.125" y="122.481" width="46" height="34.789" rx="10"/><rect class="cls-4" x="122.561" y="143.77" width="47.229" height="47.229"/><path class="cls-5" d="M333.475,237.781h12.458a6.229,6.229,0,0,1,6.23,6.229v74.75a6.23,6.23,0,0,1-6.23,6.23H246.267a6.229,6.229,0,0,1-6.229-6.23V244.01a6.229,6.229,0,0,1,6.229-6.229h12.458v-6.229a37.375,37.375,0,0,1,74.75,0Zm-43.6,48.164v14.128h12.458V285.945a12.458,12.458,0,1,0-12.458,0Zm31.146-48.164v-6.229a24.917,24.917,0,1,0-49.834,0v6.229Z" transform="translate(-146 -115.3)"/><rect class="cls-4" x="195" y="98.7" width="41" height="27"/><path class="cls-6" d="M393.125,238.338c0,10.157-8.917,18.454-19.912,18.454H326.75V219.829c0-10.157,8.917-18.454,19.913-18.454h26.6c10.979.007,19.873,8.269,19.866,18.454Zm-46.462-12.333v6.157H353.3v-6.157Zm19.912,0v6.157h6.638v-6.157Z" transform="translate(-146 -115.3)"/></svg>