<svg width="53" height="58" viewBox="0 0 53 58" fill="none" xmlns="http://www.w3.org/2000/svg">
<g clip-path="url(#clip0_242_251)">
<path d="M25.8278 57.9782L26.5716 58.806L27.3154 57.9782L41.087 42.6527C43.9413 39.4762 45.875 35.4414 46.6576 31.0631C47.4402 26.6848 47.0392 22.1457 45.5021 18.016C43.9648 13.8859 41.3554 10.3392 37.9884 7.83562C34.6198 5.33083 30.6467 3.98547 26.5716 3.98547C22.4965 3.98547 18.5233 5.33083 15.1547 7.83562C11.7877 10.3392 9.17833 13.8859 7.64106 18.016C6.10391 22.1457 5.70295 26.6848 6.48552 31.0631C7.2681 35.4414 9.20183 39.4762 12.0562 42.6527L25.8278 57.9782ZM28.8881 29.396C28.2537 30.102 27.4176 30.4751 26.5716 30.4751C25.7255 30.4751 24.8895 30.102 24.255 29.396C23.6175 28.6865 23.2436 27.7034 23.2436 26.6588C23.2436 25.6141 23.6175 24.631 24.255 23.9215C24.8895 23.2155 25.7255 22.8424 26.5716 22.8424C27.4176 22.8424 28.2537 23.2155 28.8881 23.9215C29.5257 24.631 29.8995 25.6141 29.8995 26.6588C29.8995 27.7034 29.5257 28.6865 28.8881 29.396Z" fill="#3FBEA7" stroke="white" stroke-width="2"/>
</g>
<defs>
<clipPath id="clip0_242_251">
<rect width="51.9356" height="57.7959" fill="white" transform="translate(0.60376 0.168945)"/>
</clipPath>
</defs>
</svg>
