<svg width="52" height="58" viewBox="0 0 52 58" fill="none" xmlns="http://www.w3.org/2000/svg">
<g clip-path="url(#clip0_510_7)">
<path d="M25.224 57.8093L25.9678 58.637L26.7116 57.8093L40.4832 42.4838L39.7394 41.8154L40.4832 42.4837C43.3376 39.3073 45.2713 35.2725 46.0539 30.8941C46.8364 26.5159 46.4355 21.9768 44.8983 17.847C43.361 13.717 40.7516 10.1703 37.3847 7.66668C34.0161 5.16188 30.0429 3.81653 25.9678 3.81653C21.8927 3.81653 17.9195 5.16188 14.5509 7.66668C11.184 10.1703 8.57457 13.717 7.0373 17.847C5.50015 21.9768 5.09919 26.5159 5.88176 30.8941C6.66434 35.2725 8.59807 39.3073 11.4524 42.4837L12.1962 41.8154L11.4524 42.4838L25.224 57.8093ZM28.2843 29.2271C27.6499 29.9331 26.8138 30.3061 25.9678 30.3061C25.1218 30.3061 24.2857 29.9331 23.6513 29.2271C23.0137 28.5176 22.6398 27.5344 22.6398 26.4898C22.6398 25.4452 23.0137 24.4621 23.6513 23.7525C24.2857 23.0466 25.1218 22.6735 25.9678 22.6735C26.8138 22.6735 27.6499 23.0466 28.2843 23.7525C28.9219 24.4621 29.2958 25.4452 29.2958 26.4898C29.2958 27.5344 28.9219 28.5176 28.2843 29.2271Z" fill="#5B5B5B" stroke="white" stroke-width="2"/>
</g>
<defs>
<clipPath id="clip0_510_7">
<rect width="51.9356" height="57.7959" fill="white"/>
</clipPath>
</defs>
</svg>
