<svg width="69" height="71" viewBox="0 0 69 71" fill="none" xmlns="http://www.w3.org/2000/svg">
<g filter="url(#filter0_d_494_38)">
<rect x="6" y="2" width="57" height="59" fill="white"/>
</g>
<path d="M34 48.6667C24.795 48.6667 17.3333 41.205 17.3333 32C17.3333 22.795 24.795 15.3333 34 15.3333C43.205 15.3333 50.6666 22.795 50.6666 32C50.6666 41.205 43.205 48.6667 34 48.6667ZM41.5 24.5L30.6666 28.6667L26.5 39.5L37.3333 35.3333L41.5 24.5ZM34 33.6667C33.558 33.6667 33.134 33.4911 32.8215 33.1785C32.5089 32.866 32.3333 32.442 32.3333 32C32.3333 31.558 32.5089 31.1341 32.8215 30.8215C33.134 30.5089 33.558 30.3333 34 30.3333C34.442 30.3333 34.8659 30.5089 35.1785 30.8215C35.4911 31.1341 35.6666 31.558 35.6666 32C35.6666 32.442 35.4911 32.866 35.1785 33.1785C34.8659 33.4911 34.442 33.6667 34 33.6667Z" fill="#1F52FF"/>
<defs>
<filter id="filter0_d_494_38" x="0" y="0" width="69" height="71" filterUnits="userSpaceOnUse" color-interpolation-filters="sRGB">
<feFlood flood-opacity="0" result="BackgroundImageFix"/>
<feColorMatrix in="SourceAlpha" type="matrix" values="0 0 0 0 0 0 0 0 0 0 0 0 0 0 0 0 0 0 127 0" result="hardAlpha"/>
<feOffset dy="4"/>
<feGaussianBlur stdDeviation="3"/>
<feComposite in2="hardAlpha" operator="out"/>
<feColorMatrix type="matrix" values="0 0 0 0 0 0 0 0 0 0 0 0 0 0 0 0 0 0 0.2 0"/>
<feBlend mode="normal" in2="BackgroundImageFix" result="effect1_dropShadow_494_38"/>
<feBlend mode="normal" in="SourceGraphic" in2="effect1_dropShadow_494_38" result="shape"/>
</filter>
</defs>
</svg>
