<svg width="53" height="58" viewBox="0 0 53 58" fill="none" xmlns="http://www.w3.org/2000/svg">
<g clip-path="url(#clip0_242_242)">
<path d="M25.8743 57.9585L26.6187 58.7869L27.3624 57.958L41.1239 42.6196L40.381 41.9502L41.1254 42.618L41.1248 42.6186C49.0839 33.7855 49.0835 19.4825 41.1465 10.6499L41.1455 10.6489C33.1331 1.75763 20.1053 1.72854 12.1104 10.651C4.17495 19.507 4.17367 33.8093 12.1113 42.6426L25.8743 57.9585ZM29.9461 26.6342C29.9461 28.8342 28.3483 30.4506 26.6181 30.4506C24.8879 30.4506 23.2901 28.8342 23.2901 26.6342C23.2901 24.4343 24.8879 22.8179 26.6181 22.8179C28.3483 22.8179 29.9461 24.4343 29.9461 26.6342Z" fill="#FFD107" stroke="white" stroke-width="2"/>
</g>
<defs>
<clipPath id="clip0_242_242">
<rect width="51.9356" height="57.7959" fill="white" transform="translate(0.650269 0.144409)"/>
</clipPath>
</defs>
</svg>
