<?xml version="1.0" encoding="utf-8"?>
<!-- Generator: Adobe Illustrator 26.0.3, SVG Export Plug-In . SVG Version: 6.00 Build 0)  -->
<svg version="1.1" id="Layer_1" xmlns="http://www.w3.org/2000/svg" xmlns:xlink="http://www.w3.org/1999/xlink" x="0px" y="0px"
	 viewBox="0 0 600 600" style="enable-background:new 0 0 600 600;" xml:space="preserve">
<style type="text/css">
	.st0{fill:#EAEAF1;}
	.st1{fill:none;}
	.st2{fill:#D12439;}
</style>
<path class="st0" d="M394.3,417.6H200c-29.8,0-54-24.2-54-54V169.3c0-29.8,24.2-54,54-54h194.2c29.8,0,54,24.2,54,54v194.2
	C448.3,393.4,424.1,417.6,394.3,417.6z"/>
<path class="st1" d="M225.7,184.8h149.5v149.5H225.7V184.8z"/>
<path class="st1" d="M327,277.5h140.1v140.1H327V277.5z"/>
<path class="st2" d="M326.3,208.1l29.2,29.2V319c0,3.2-2.6,5.8-5.8,5.8h-93.5c-3.2,0-5.8-2.6-5.8-5.8V213.9c0-3.2,2.6-5.8,5.8-5.8
	H326.3z M297.1,284v11.7h11.7V284H297.1z M297.1,237.3v35h11.7v-35H297.1z"/>
</svg>
