<svg width="28" height="28" viewBox="0 0 28 28" fill="none" xmlns="http://www.w3.org/2000/svg">
<rect width="28" height="28" rx="8" fill="#FA9C2C"/>
<path d="M18.2083 7C18.3962 7 18.5764 7.07463 18.7092 7.20747C18.842 7.3403 18.9167 7.52047 18.9167 7.70833V13.375H17.5V8.41667H10.4167V19.75H13.25V21.1667H9.70833C9.52047 21.1667 9.3403 21.092 9.20747 20.9592C9.07463 20.8264 9 20.6462 9 20.4583V7.70833C9 7.52047 9.07463 7.3403 9.20747 7.20747C9.3403 7.07463 9.52047 7 9.70833 7H18.2083ZM16.0833 14.0833C16.5829 14.0833 17.0737 14.2153 17.5058 14.4661C17.9379 14.7168 18.2961 15.0774 18.5439 15.5112C18.7917 15.945 18.9205 16.4366 18.917 16.9362C18.9136 17.4359 18.7781 17.9257 18.5242 18.356L20.0897 19.9214L19.0888 20.9237L17.522 19.3583C17.1466 19.5793 16.7254 19.7107 16.291 19.7425C15.8566 19.7742 15.4207 19.7054 15.0172 19.5413C14.6137 19.3772 14.2535 19.1223 13.9645 18.7964C13.6756 18.4705 13.4656 18.0824 13.351 17.6622C13.2364 17.242 13.2202 16.801 13.3037 16.3735C13.3872 15.946 13.5682 15.5435 13.8325 15.1973C14.0968 14.8511 14.4374 14.5705 14.8277 14.3773C15.2181 14.1841 15.6478 14.0835 16.0833 14.0833V14.0833ZM16.0833 15.5C15.7076 15.5 15.3473 15.6493 15.0816 15.9149C14.8159 16.1806 14.6667 16.5409 14.6667 16.9167C14.6667 17.2924 14.8159 17.6527 15.0816 17.9184C15.3473 18.1841 15.7076 18.3333 16.0833 18.3333C16.4591 18.3333 16.8194 18.1841 17.0851 17.9184C17.3507 17.6527 17.5 17.2924 17.5 16.9167C17.5 16.5409 17.3507 16.1806 17.0851 15.9149C16.8194 15.6493 16.4591 15.5 16.0833 15.5Z" fill="white"/>
</svg>
