<svg width="28" height="28" viewBox="0 0 28 28" fill="none" xmlns="http://www.w3.org/2000/svg">
<rect width="28" height="28" rx="8" fill="#EC2B2B"/>
<path d="M8.77807 18.7V14.8C8.77807 13.4209 9.32823 12.0982 10.3075 11.123C11.2868 10.1479 12.6151 9.6 14 9.6C15.3849 9.6 16.7132 10.1479 17.6925 11.123C18.6718 12.0982 19.2219 13.4209 19.2219 14.8V18.7H19.8747V20H8.12533V18.7H8.77807ZM10.0836 18.7H17.9164V14.8C17.9164 13.7657 17.5038 12.7737 16.7693 12.0423C16.0349 11.3109 15.0387 10.9 14 10.9C12.9613 10.9 11.9651 11.3109 11.2307 12.0423C10.4962 12.7737 10.0836 13.7657 10.0836 14.8V18.7ZM13.3473 7H14.6527V8.95H13.3473V7ZM19.077 8.8252L20 9.7443L18.6162 11.123L17.6926 10.2038L19.077 8.8252ZM8 9.7443L8.92298 8.8252L10.3074 10.2032L9.38512 11.1236L8 9.7443ZM10.7363 14.8C10.7363 13.938 11.0801 13.1114 11.6922 12.5019C12.3043 11.8924 13.1344 11.55 14 11.55V12.85C13.4806 12.85 12.9826 13.0554 12.6153 13.4211C12.2481 13.7868 12.0418 14.2828 12.0418 14.8H10.7363Z" fill="white"/>
</svg>
