<svg width="28" height="28" viewBox="0 0 28 28" fill="none" xmlns="http://www.w3.org/2000/svg">
<rect width="28" height="28" rx="8" fill="#4253DC"/>
<path d="M10.1556 19.3333L7 21.8125V8.70833C7 8.52047 7.07463 8.3403 7.20747 8.20747C7.3403 8.07463 7.52047 8 7.70833 8H20.4583C20.6462 8 20.8264 8.07463 20.9592 8.20747C21.092 8.3403 21.1667 8.52047 21.1667 8.70833V18.625C21.1667 18.8129 21.092 18.993 20.9592 19.1259C20.8264 19.2587 20.6462 19.3333 20.4583 19.3333H10.1556ZM9.66546 17.9167H19.75V9.41667H8.41667V18.8977L9.66546 17.9167ZM13.375 12.9583H14.7917V14.375H13.375V12.9583ZM10.5417 12.9583H11.9583V14.375H10.5417V12.9583ZM16.2083 12.9583H17.625V14.375H16.2083V12.9583Z" fill="white"/>
</svg>
